<svg width="547" height="439" viewBox="0 0 547 439" fill="none" xmlns="http://www.w3.org/2000/svg">
<path d="M118.974 438.282C97.7268 438.282 77.9687 432.622 59.6997 421.299C41.6294 410.177 27.1335 395.28 16.2119 376.608C5.48882 357.738 0.127319 337.18 0.127319 314.934V287.523C0.127319 285.338 0.921616 284.246 2.51021 284.246H71.0185C73.0043 284.246 73.9972 285.338 73.9972 287.523V314.934C73.9972 328.242 78.2665 339.762 86.8052 349.495C95.3439 359.03 106.067 363.796 118.974 363.796C133.272 363.796 144.492 358.831 152.633 348.899C160.774 338.769 164.846 327.448 164.846 314.934V298.547C164.846 285.835 160.873 274.414 152.931 264.283C144.988 254.153 134.959 249.088 122.847 249.088H99.0176C97.0319 249.088 96.039 247.996 96.039 245.81L96.6346 177.582C96.6346 175.993 97.429 175.198 99.0176 175.198H122.847C133.769 175.198 143.499 170.928 152.036 162.387C160.576 153.845 164.846 142.623 164.846 128.719V120.376C164.846 107.267 160.477 96.1435 151.739 87.0065C143.002 77.8695 132.08 73.3017 118.974 73.3017C106.464 73.3017 95.8404 77.8695 87.103 87.0065C78.3658 96.1435 73.9972 107.267 73.9972 120.376V149.575C73.9972 151.562 73.2028 152.554 71.6142 152.554H3.10596C1.51734 152.554 0.723041 151.562 0.723041 149.575V117.1C0.723041 94.8523 6.38238 74.9894 17.7012 57.5112C28.8214 40.0318 43.4167 26.1268 61.487 15.7988C79.5572 5.27179 98.7197 0.00708008 118.974 0.00708008C141.016 0.00708008 161.072 5.37062 179.142 16.0965C197.212 27.0213 211.51 41.4218 222.035 59.2978C232.758 77.1751 238.119 96.8391 238.119 118.291V128.123C238.119 145.999 235.141 161.493 229.183 174.603C223.226 187.513 214.986 199.928 204.46 211.845C214.986 223.962 223.325 237.27 229.481 251.77C235.637 266.27 238.714 281.167 238.714 296.461V314.934C238.714 337.578 233.354 358.334 222.631 377.203C211.709 395.875 197.212 410.772 179.142 421.896C161.072 432.82 141.016 438.282 118.974 438.282Z" fill="#D4A65D"/>
<path d="M426.627 437.392C404.982 437.392 385.025 431.83 366.756 420.707C348.686 409.583 334.09 394.786 322.971 376.313C312.049 357.643 306.588 337.183 306.588 314.937L307.184 121.572C307.184 98.9276 312.644 78.5681 323.566 60.4931C334.289 42.2192 348.786 27.6198 367.055 16.695C385.324 5.57248 405.181 0.0100098 426.627 0.0100098C448.867 0.0100098 468.823 5.47239 486.497 16.3972C504.368 27.322 518.666 42.0203 529.389 60.4931C540.311 78.767 545.772 99.1265 545.772 121.572L546.367 314.937C546.367 337.183 541.006 357.543 530.283 376.015C519.361 394.686 504.865 409.583 486.795 420.707C468.725 431.83 448.668 437.392 426.627 437.392ZM426.627 363.799C438.938 363.799 449.661 358.834 458.796 348.902C467.93 338.772 472.497 327.45 472.497 314.937L471.902 121.572C471.902 108.065 467.633 96.6431 459.094 87.3084C450.554 77.9725 439.733 73.3046 426.627 73.3046C414.117 73.3046 403.394 77.8725 394.458 87.0094C385.521 96.1464 381.053 107.668 381.053 121.572V314.937C381.053 328.245 385.521 339.765 394.458 349.498C403.394 359.033 414.117 363.799 426.627 363.799Z" fill="#F3E1A1"/>
<path d="M260.03 437.389C237.989 437.389 218.131 431.926 200.458 421.002C182.586 410.077 168.189 395.379 157.268 376.906C146.545 358.434 141.183 337.776 141.183 314.934V121.569C141.183 99.3225 146.644 79.0618 157.566 60.7879C168.289 42.3151 182.685 27.6169 200.755 16.6921C218.825 5.56955 238.584 0.00708008 260.03 0.00708008C282.469 0.00708008 302.724 5.37062 320.794 16.0965C338.864 27.0213 353.162 41.6207 363.686 59.8946C374.409 78.1685 379.771 98.7258 379.771 121.569V149.575C379.771 151.164 378.778 151.959 376.792 151.959H308.284C306.695 151.959 305.901 151.164 305.901 149.575V126.336C305.901 110.843 301.532 98.0314 292.795 87.901C284.057 77.7707 273.136 72.7061 260.03 72.7061C248.314 72.7061 237.888 77.5718 228.754 87.3055C219.62 97.038 215.053 108.459 215.053 121.569V314.934C215.053 328.242 219.521 339.762 228.456 349.495C237.392 359.03 247.917 363.796 260.03 363.796C273.136 363.796 284.057 359.128 292.795 349.793C301.532 340.259 305.901 328.639 305.901 314.934V284.842H263.307C261.122 284.842 260.03 283.848 260.03 281.862V213.633C260.03 211.647 261.122 210.654 263.307 210.654H377.388C378.977 210.654 379.771 211.647 379.771 213.633V314.934C379.771 337.776 374.409 358.434 363.686 376.906C352.764 395.379 338.368 410.077 320.496 421.002C302.624 431.926 282.469 437.389 260.03 437.389Z" fill="#9AC9DB"/>
</svg>
