<svg width="100" height="81" viewBox="0 0 100 81" fill="none" xmlns="http://www.w3.org/2000/svg">
<path fill-rule="evenodd" clip-rule="evenodd" d="M21.7573 80.2349C17.8675 80.2349 14.2504 79.1987 10.9059 77.1259C7.59779 75.0897 4.94402 72.3625 2.9446 68.9443C0.98153 65.4898 0 61.7262 0 57.6536V52.6355C0 52.2356 0.145412 52.0356 0.436235 52.0356H12.978C13.3416 52.0356 13.5233 52.2356 13.5233 52.6355V57.6536C13.5233 60.0899 14.3049 62.1989 15.8681 63.9807C17.4313 65.7262 19.3944 66.5989 21.7573 66.5989C23.8352 66.5989 25.5579 66.026 26.9255 64.8803C26.1905 62.6211 25.823 60.2122 25.823 57.6536V46.4661C24.823 45.8882 23.7041 45.5993 22.4663 45.5993H18.1038C17.7403 45.5993 17.5585 45.3993 17.5585 44.9992L17.6676 32.5085C17.6676 32.2177 17.813 32.0722 18.1038 32.0722H22.4663C23.6634 32.0722 24.7823 31.792 25.823 31.2314V22.2543C25.823 19.7601 26.198 17.4023 26.9479 15.1809C25.4987 14.0056 23.7685 13.418 21.7573 13.418C19.4671 13.418 17.5222 14.2543 15.9226 15.927C14.3231 17.5997 13.5233 19.6361 13.5233 22.036V27.3814C13.5233 27.7451 13.3779 27.9268 13.0871 27.9268H0.545299C0.254471 27.9268 0.109059 27.7451 0.109059 27.3814V21.4361C0.109059 17.3633 1.14511 13.727 3.21725 10.5273C5.25303 7.32731 7.92498 4.78173 11.2331 2.89098C14.5412 0.963809 18.0493 0 21.7573 0C25.7924 0 29.4641 0.981903 32.7722 2.94549C33.4895 3.37912 34.1742 3.84266 34.8265 4.3361C35.4338 3.88133 36.0679 3.45413 36.7289 3.05452C40.037 1.01832 43.6542 0 47.5803 0C51.6882 0 55.3963 0.981903 58.7044 2.94549C60.2832 3.89999 61.7047 5.00772 62.9689 6.26867C64.222 5.053 65.6235 3.98178 67.1733 3.05501C70.5178 1.01881 74.1531 0.000488281 78.0792 0.000488281C82.1507 0.000488281 85.8041 1.00049 89.0396 3.00049C92.3113 5.00049 94.9288 7.6913 96.8918 11.0731C98.8913 14.4185 99.891 18.1457 99.891 22.2548L100 57.6541C100 61.7267 99.0186 65.4539 97.0555 68.8357C95.0561 72.2537 92.4022 74.9809 89.0941 77.0174C85.786 79.0538 82.1143 80.0719 78.0792 80.0719C74.1167 80.0719 70.4631 79.0538 67.1186 77.0174C65.576 76.0677 64.1716 74.9718 62.9057 73.7297C61.6324 75.0015 60.2139 76.1153 58.6499 77.0714C55.378 79.0714 51.6882 80.0714 47.5803 80.0714C43.5452 80.0714 39.9099 79.0714 36.6744 77.0714C36.034 76.6799 35.4179 76.2619 34.8262 75.8174C34.1721 76.3223 33.4874 76.7949 32.7722 77.2352C29.4641 79.2349 25.7924 80.2349 21.7573 80.2349ZM42.6136 64.7565C44.0645 65.9848 45.7202 66.5989 47.5803 66.5989C49.9796 66.5989 51.979 65.7443 53.5787 64.0352C55.1781 62.2899 55.9779 60.1625 55.9779 57.6536V52.1446H48.1802C47.7802 52.1446 47.5803 51.9628 47.5803 51.5991V39.1084C47.5803 38.7449 47.7802 38.5631 48.1802 38.5631H56.1625L56.1957 27.7802C56.0505 27.7199 55.9779 27.5869 55.9779 27.3814V23.1269C55.9779 20.2907 55.1781 17.9453 53.5787 16.0907C51.979 14.2362 49.9796 13.309 47.5803 13.309C45.752 13.309 44.0953 13.9563 42.6104 15.2511C43.2495 17.2789 43.5691 19.4133 43.5691 21.6542V23.4542C43.5691 26.7268 43.0239 29.5633 41.9333 31.9632C41.2399 33.4657 40.3777 34.9316 39.3464 36.3608V41.2816C40.3892 42.7959 41.2696 44.3987 41.9878 46.0901C43.1148 48.7447 43.6781 51.4719 43.6781 54.2718V57.6536C43.6781 60.1462 43.3233 62.5138 42.6136 64.7565ZM78.0792 66.5993C80.3331 66.5993 82.2961 65.6903 83.9684 63.8721C85.6406 62.0176 86.4766 59.945 86.4766 57.6541L86.3676 22.2548C86.3676 19.782 85.5861 17.6911 84.0229 15.9822C82.4596 14.2731 80.4785 13.4185 78.0792 13.4185C75.789 13.4185 73.8259 14.2548 72.1901 15.9275C70.554 17.6002 69.7361 19.7094 69.7361 22.2548V57.6541C69.7361 60.0904 70.554 62.1994 72.1901 63.9812C73.8259 65.7267 75.789 66.5993 78.0792 66.5993Z" fill="white"/>
</svg>
